# xmcd CD database file
#
# Track frame offsets:
#	150
#	13580
#	30036
#	46952
#	60173
#	71547
#	90227
#	110144
#	125052
#	145091
#	162753
#	186603
#	207434
#	226658
#	245707
#	260138
#	277634
#	292783
#	310639
#	337888
#	350318
#
# Disc length: 4785 seconds
#
# Revision: 1
# Processed by: cddbd v1.5.1PL0 Copyright (c) Steve Scherf et al.
# Submitted via: CDex 1.51
#
DISCID=1d12af15
DTITLE=Kent DuChaine - Live in Norderstedt, Music Star
DYEAR=1999
DGENRE=Blues
TTITLE0=Crossroads
TTITLE1=Fifi Bordeaux
TTITLE2=Blues So Bad
TTITLE3=Mean Mistreater
TTITLE4=Marilyn
TTITLE5=Come Into My Kitchen
TTITLE6=When A Man Loves A Woman
TTITLE7=She´s Haunting Me
TTITLE8=Jitterburg Swing
TTITLE9=The Things I Used To Do
TTITLE10=Personality
TTITLE11=Tribute To Muddy
TTITLE12=Last Fair Deal Going On
TTITLE13=Johnny´s Gone
TTITLE14=Can´t Be Satisfied
TTITLE15=Friend Of Mine
TTITLE16=Fishing Blues
TTITLE17=16 Gauge Steel
TTITLE18=Loa Of Love
TTITLE19=Swing Low Sweet Chariot
TTITLE20=When The Saints Go MArching In
EXTD=YEAR: 1999
EXTT0=
EXTT1=
EXTT2=
EXTT3=
EXTT4=
EXTT5=
EXTT6=
EXTT7=
EXTT8=
EXTT9=
EXTT10=
EXTT11=
EXTT12=
EXTT13=
EXTT14=
EXTT15=
EXTT16=
EXTT17=
EXTT18=
EXTT19=
EXTT20=
PLAYORDER=
